{
    "asset" : {
        "generator" : "Khronos glTF Blender I/O v0.9.36",
        "version" : "2.0"
    },
    "scene" : 0,
    "scenes" : [
        {
            "name" : "Scene",
            "nodes" : [
                4
            ]
        }
    ],
    "nodes" : [
        {
            "mesh" : 0,
            "name" : "Cylindre.004",
            "rotation" : [
                0,
                0,
                0.7070918679237366,
                0.707121729850769
            ]
        },
        {
            "mesh" : 1,
            "name" : "Cylindre.005",
            "rotation" : [
                0,
                0,
                0.7070918679237366,
                0.707121729850769
            ]
        },
        {
            "mesh" : 2,
            "name" : "Cylindre.2_1.001",
            "rotation" : [
                0,
                0,
                0.7070918679237366,
                0.707121729850769
            ]
        },
        {
            "mesh" : 3,
            "name" : "Plane.035__0",
            "rotation" : [
                -0.7071068286895752,
                0.00010525884135859087,
                -0.0001052588559105061,
                0.7071067094802856
            ],
            "scale" : [
                61.398616790771484,
                61.39860534667969,
                61.398616790771484
            ],
            "translation" : [
                -0.5063681602478027,
                0.19114162027835846,
                0.15907809138298035
            ]
        },
        {
            "children" : [
                0,
                1,
                2,
                3
            ],
            "mesh" : 4,
            "name" : "body",
            "rotation" : [
                0.5000105500221252,
                0.49998942017555237,
                -0.49998950958251953,
                0.5000104904174805
            ],
            "scale" : [
                0.011552000418305397,
                0.011552000418305397,
                0.011552000418305397
            ],
            "translation" : [
                0.0016942860092967749,
                0.004417359828948975,
                0.004141270648688078
            ]
        }
    ],
    "materials" : [
        {
            "doubleSided" : true,
            "name" : "PLASTIC",
            "pbrMetallicRoughness" : {
                "baseColorFactor" : [
                    0.0134117491543293,
                    0.0134117491543293,
                    0.0134117491543293,
                    1
                ],
                "metallicFactor" : 0.3454545736312866,
                "roughnessFactor" : 0.604544997215271
            }
        },
        {
            "alphaMode" : "BLEND",
            "doubleSided" : true,
            "emissiveFactor" : [
                0,
                0,
                0
            ],
            "name" : "Plane.035__0",
            "occlusionTexture" : {
                "index" : 0,
                "texCoord" : 0
            },
            "pbrMetallicRoughness" : {
                "baseColorFactor" : [
                    0,
                    0,
                    0,
                    1
                ],
                "baseColorTexture" : {
                    "index" : 1,
                    "texCoord" : 0
                },
                "metallicFactor" : 1,
                "roughnessFactor" : 1
            }
        },
        {
            "doubleSided" : true,
            "name" : "Body_Color",
            "pbrMetallicRoughness" : {
                "baseColorFactor" : [
                    0.800000011920929,
                    0.800000011920929,
                    0.800000011920929,
                    1
                ],
                "metallicFactor" : 0.20909090340137482,
                "roughnessFactor" : 0.2590909004211426
            }
        }
    ],
    "meshes" : [
        {
            "name" : "Cylindre.004",
            "primitives" : [
                {
                    "attributes" : {
                        "POSITION" : 0,
                        "NORMAL" : 1,
                        "TEXCOORD_0" : 2
                    },
                    "indices" : 3,
                    "material" : 0
                }
            ]
        },
        {
            "name" : "Cylindre.005",
            "primitives" : [
                {
                    "attributes" : {
                        "POSITION" : 4,
                        "NORMAL" : 5,
                        "TEXCOORD_0" : 6
                    },
                    "indices" : 7,
                    "material" : 0
                }
            ]
        },
        {
            "name" : "Cylindre.2_1.001",
            "primitives" : [
                {
                    "attributes" : {
                        "POSITION" : 8,
                        "NORMAL" : 9,
                        "TEXCOORD_0" : 10
                    },
                    "indices" : 11,
                    "material" : 0
                }
            ]
        },
        {
            "name" : "Plane.035__0",
            "primitives" : [
                {
                    "attributes" : {
                        "POSITION" : 12,
                        "NORMAL" : 13,
                        "TEXCOORD_0" : 14
                    },
                    "indices" : 15,
                    "material" : 1
                }
            ]
        },
        {
            "name" : "Cylindre.001",
            "primitives" : [
                {
                    "attributes" : {
                        "POSITION" : 16,
                        "NORMAL" : 17,
                        "TEXCOORD_0" : 18
                    },
                    "indices" : 19,
                    "material" : 2
                }
            ]
        }
    ],
    "textures" : [
        {
            "source" : 0
        },
        {
            "source" : 1
        }
    ],
    "images" : [
        {
            "mimeType" : "image/png",
            "name" : "Plane.035__0_metallicRoughness",
            "uri" : "Plane_035__0_metallicRoughness.png"
        },
        {
            "mimeType" : "image/png",
            "name" : "shadow2-40",
            "uri" : "shadow2-40.png"
        }
    ],
    "accessors" : [
        {
            "bufferView" : 0,
            "componentType" : 5126,
            "count" : 28180,
            "max" : [
                12.340713500976562,
                12.340713500976562,
                -98.19087219238281
            ],
            "min" : [
                -12.340713500976562,
                -12.340713500976562,
                -120.68157958984375
            ],
            "type" : "VEC3"
        },
        {
            "bufferView" : 1,
            "componentType" : 5126,
            "count" : 28180,
            "type" : "VEC3"
        },
        {
            "bufferView" : 2,
            "componentType" : 5126,
            "count" : 28180,
            "type" : "VEC2"
        },
        {
            "bufferView" : 3,
            "componentType" : 5123,
            "count" : 165600,
            "type" : "SCALAR"
        },
        {
            "bufferView" : 4,
            "componentType" : 5126,
            "count" : 3902,
            "max" : [
                10.404963493347168,
                10.404963493347168,
                -91.13410186767578
            ],
            "min" : [
                -10.404963493347168,
                -10.404963493347168,
                -97.29684448242188
            ],
            "type" : "VEC3"
        },
        {
            "bufferView" : 5,
            "componentType" : 5126,
            "count" : 3902,
            "type" : "VEC3"
        },
        {
            "bufferView" : 6,
            "componentType" : 5126,
            "count" : 3902,
            "type" : "VEC2"
        },
        {
            "bufferView" : 7,
            "componentType" : 5123,
            "count" : 22320,
            "type" : "SCALAR"
        },
        {
            "bufferView" : 8,
            "componentType" : 5126,
            "count" : 12124,
            "max" : [
                11.156749725341797,
                11.156749725341797,
                -96.93043518066406
            ],
            "min" : [
                -11.156749725341797,
                -11.156749725341797,
                -99.92298889160156
            ],
            "type" : "VEC3"
        },
        {
            "bufferView" : 9,
            "componentType" : 5126,
            "count" : 12124,
            "type" : "VEC3"
        },
        {
            "bufferView" : 10,
            "componentType" : 5126,
            "count" : 12124,
            "type" : "VEC2"
        },
        {
            "bufferView" : 11,
            "componentType" : 5123,
            "count" : 72000,
            "type" : "SCALAR"
        },
        {
            "bufferView" : 12,
            "componentType" : 5126,
            "count" : 4,
            "max" : [
                1,
                0,
                1
            ],
            "min" : [
                -1,
                0,
                -1
            ],
            "type" : "VEC3"
        },
        {
            "bufferView" : 13,
            "componentType" : 5126,
            "count" : 4,
            "type" : "VEC3"
        },
        {
            "bufferView" : 14,
            "componentType" : 5126,
            "count" : 4,
            "type" : "VEC2"
        },
        {
            "bufferView" : 15,
            "componentType" : 5123,
            "count" : 6,
            "type" : "SCALAR"
        },
        {
            "bufferView" : 16,
            "componentType" : 5126,
            "count" : 22510,
            "max" : [
                20.02005386352539,
                20.061689376831055,
                -0.22283558547496796
            ],
            "min" : [
                -20.02005386352539,
                -19.97842025756836,
                -94.95597076416016
            ],
            "type" : "VEC3"
        },
        {
            "bufferView" : 17,
            "componentType" : 5126,
            "count" : 22510,
            "type" : "VEC3"
        },
        {
            "bufferView" : 18,
            "componentType" : 5126,
            "count" : 22510,
            "type" : "VEC2"
        },
        {
            "bufferView" : 19,
            "componentType" : 5123,
            "count" : 132000,
            "type" : "SCALAR"
        }
    ],
    "bufferViews" : [
        {
            "buffer" : 0,
            "byteLength" : 338160,
            "byteOffset" : 0
        },
        {
            "buffer" : 0,
            "byteLength" : 338160,
            "byteOffset" : 338160
        },
        {
            "buffer" : 0,
            "byteLength" : 225440,
            "byteOffset" : 676320
        },
        {
            "buffer" : 0,
            "byteLength" : 331200,
            "byteOffset" : 901760
        },
        {
            "buffer" : 0,
            "byteLength" : 46824,
            "byteOffset" : 1232960
        },
        {
            "buffer" : 0,
            "byteLength" : 46824,
            "byteOffset" : 1279784
        },
        {
            "buffer" : 0,
            "byteLength" : 31216,
            "byteOffset" : 1326608
        },
        {
            "buffer" : 0,
            "byteLength" : 44640,
            "byteOffset" : 1357824
        },
        {
            "buffer" : 0,
            "byteLength" : 145488,
            "byteOffset" : 1402464
        },
        {
            "buffer" : 0,
            "byteLength" : 145488,
            "byteOffset" : 1547952
        },
        {
            "buffer" : 0,
            "byteLength" : 96992,
            "byteOffset" : 1693440
        },
        {
            "buffer" : 0,
            "byteLength" : 144000,
            "byteOffset" : 1790432
        },
        {
            "buffer" : 0,
            "byteLength" : 48,
            "byteOffset" : 1934432
        },
        {
            "buffer" : 0,
            "byteLength" : 48,
            "byteOffset" : 1934480
        },
        {
            "buffer" : 0,
            "byteLength" : 32,
            "byteOffset" : 1934528
        },
        {
            "buffer" : 0,
            "byteLength" : 12,
            "byteOffset" : 1934560
        },
        {
            "buffer" : 0,
            "byteLength" : 270120,
            "byteOffset" : 1934572
        },
        {
            "buffer" : 0,
            "byteLength" : 270120,
            "byteOffset" : 2204692
        },
        {
            "buffer" : 0,
            "byteLength" : 180080,
            "byteOffset" : 2474812
        },
        {
            "buffer" : 0,
            "byteLength" : 264000,
            "byteOffset" : 2654892
        }
    ],
    "buffers" : [
        {
            "byteLength" : 2918892,
            "uri" : "bouteille-ambrosia.bin"
        }
    ]
}
