{
  "asset": {
    "version": "2.0",
    "generator": "THREE.GLTFExporter"
  },
  "scenes": [
    {
      "nodes": [
        5
      ]
    }
  ],
  "scene": 0,
  "nodes": [
    {
      "matrix": [
        5.688889026641846,
        0,
        0,
        0,
        0,
        1.9472237572281257e-7,
        -5.68888883191947,
        0,
        0,
        5.68888883191947,
        1.9472237572281257e-7,
        0,
        -0.000030517578125,
        212.47976684570312,
        256,
        1
      ],
      "name": "node_id5",
      "mesh": 0
    },
    {
      "matrix": [
        5.688889026641846,
        0,
        0,
        0,
        0,
        1.9472237572281257e-7,
        -5.68888883191947,
        0,
        0,
        5.68888883191947,
        1.9472237572281257e-7,
        0,
        -0.000030517578125,
        206.79087829589844,
        256,
        1
      ],
      "name": "node_id7",
      "mesh": 1
    },
    {
      "matrix": [
        5.688889026641846,
        0,
        0,
        0,
        0,
        1.9472237572281257e-7,
        -5.68888883191947,
        0,
        0,
        5.68888883191947,
        1.9472237572281257e-7,
        0,
        1.328897476196289,
        -221.01356506347656,
        256.6575927734375,
        1
      ],
      "name": "node_id9",
      "mesh": 2
    },
    {
      "matrix": [
        -7.643526621855646e-7,
        7.62140658404902e-15,
        5.688888831919467,
        0,
        -9.268376908150967e-7,
        5.68888902664177,
        -1.6387456025409195e-13,
        0,
        -5.6888888319193915,
        -9.268376908151111e-7,
        -7.643526621855646e-7,
        0,
        1.592569351196289,
        -30.2542667388916,
        204.7635498046875,
        1
      ],
      "name": "node_id11",
      "mesh": 3
    },
    {
      "matrix": [
        0.0010000000474974513,
        0,
        0,
        0,
        0,
        0.0010000000474974513,
        0,
        0,
        0,
        0,
        0.0010000000474974513,
        0,
        0,
        0,
        0,
        1
      ],
      "name": "node_id13",
      "children": [
        0,
        1,
        2,
        3
      ]
    },
    {
      "name": "root",
      "children": [
        4
      ]
    }
  ],
  "bufferViews": [
    {
      "buffer": 0,
      "byteOffset": 0,
      "byteLength": 19104,
      "target": 34962,
      "byteStride": 12
    },
    {
      "buffer": 0,
      "byteOffset": 19104,
      "byteLength": 19104,
      "target": 34962,
      "byteStride": 12
    },
    {
      "buffer": 0,
      "byteOffset": 38208,
      "byteLength": 12736,
      "target": 34962,
      "byteStride": 8
    },
    {
      "buffer": 0,
      "byteOffset": 50944,
      "byteLength": 25472,
      "target": 34962,
      "byteStride": 16
    },
    {
      "buffer": 0,
      "byteOffset": 76416,
      "byteLength": 17256,
      "target": 34963
    },
    {
      "buffer": 0,
      "byteOffset": 93672,
      "byteLength": 3648,
      "target": 34962,
      "byteStride": 12
    },
    {
      "buffer": 0,
      "byteOffset": 97320,
      "byteLength": 3648,
      "target": 34962,
      "byteStride": 12
    },
    {
      "buffer": 0,
      "byteOffset": 100968,
      "byteLength": 2432,
      "target": 34962,
      "byteStride": 8
    },
    {
      "buffer": 0,
      "byteOffset": 103400,
      "byteLength": 4864,
      "target": 34962,
      "byteStride": 16
    },
    {
      "buffer": 0,
      "byteOffset": 108264,
      "byteLength": 1536,
      "target": 34963
    },
    {
      "buffer": 0,
      "byteOffset": 109800,
      "byteLength": 5376,
      "target": 34962,
      "byteStride": 12
    },
    {
      "buffer": 0,
      "byteOffset": 115176,
      "byteLength": 5376,
      "target": 34962,
      "byteStride": 12
    },
    {
      "buffer": 0,
      "byteOffset": 120552,
      "byteLength": 3584,
      "target": 34962,
      "byteStride": 8
    },
    {
      "buffer": 0,
      "byteOffset": 124136,
      "byteLength": 7168,
      "target": 34962,
      "byteStride": 16
    },
    {
      "buffer": 0,
      "byteOffset": 131304,
      "byteLength": 3444,
      "target": 34963
    },
    {
      "buffer": 0,
      "byteOffset": 134748,
      "byteLength": 73164,
      "target": 34962,
      "byteStride": 12
    },
    {
      "buffer": 0,
      "byteOffset": 207912,
      "byteLength": 73164,
      "target": 34962,
      "byteStride": 12
    },
    {
      "buffer": 0,
      "byteOffset": 281076,
      "byteLength": 48776,
      "target": 34962,
      "byteStride": 8
    },
    {
      "buffer": 0,
      "byteOffset": 329852,
      "byteLength": 97552,
      "target": 34962,
      "byteStride": 16
    },
    {
      "buffer": 0,
      "byteOffset": 427404,
      "byteLength": 63744,
      "target": 34963
    }
  ],
  "buffers": [
    {
      "byteLength": 491148,
      "uri": "data:application/octet-stream;base64,"
    }
  ],
  "accessors": [
    {
      "bufferView": 0,
      "componentType": 5126,
      "count": 1592,
      "max": [
        45,
        45,
        1.5
      ],
      "min": [
        -45,
        -45,
        0
      ],
      "type": "VEC3"
    },
    {
      "bufferView": 1,
      "componentType": 5126,
      "count": 1592,
      "max": [
        0.9984716176986694,
        0.9984716176986694,
        0.9984195828437805
      ],
      "min": [
        -0.9984716773033142,
        -0.9984716176986694,
        -0.9984195828437805
      ],
      "type": "VEC3"
    },
    {
      "bufferView": 2,
      "componentType": 5126,
      "count": 1592,
      "max": [
        0.9999463558197021,
        0.89300537109375
      ],
      "min": [
        0.00003412365913391113,
        0.00007942318916320801
      ],
      "type": "VEC2"
    },
    {
      "bufferView": 3,
      "componentType": 5126,
      "count": 1592,
      "max": [
        1,
        1,
        1,
        1
      ],
      "min": [
        1,
        1,
        1,
        1
      ],
      "type": "VEC4"
    },
    {
      "bufferView": 4,
      "componentType": 5123,
      "count": 8628,
      "max": [
        1591
      ],
      "min": [
        0
      ],
      "type": "SCALAR"
    },
    {
      "bufferView": 5,
      "componentType": 5126,
      "count": 304,
      "max": [
        40,
        40,
        1
      ],
      "min": [
        -40,
        -40,
        0
      ],
      "type": "VEC3"
    },
    {
      "bufferView": 6,
      "componentType": 5126,
      "count": 304,
      "max": [
        1,
        1,
        1
      ],
      "min": [
        -1,
        -1,
        -1
      ],
      "type": "VEC3"
    },
    {
      "bufferView": 7,
      "componentType": 5126,
      "count": 304,
      "max": [
        0.9998928308486938,
        0.9223668575286865
      ],
      "min": [
        0.00018028169870376587,
        0.000017121434211730957
      ],
      "type": "VEC2"
    },
    {
      "bufferView": 8,
      "componentType": 5126,
      "count": 304,
      "max": [
        1,
        1,
        1,
        1
      ],
      "min": [
        1,
        1,
        1,
        1
      ],
      "type": "VEC4"
    },
    {
      "bufferView": 9,
      "componentType": 5123,
      "count": 768,
      "max": [
        303
      ],
      "min": [
        0
      ],
      "type": "SCALAR"
    },
    {
      "bufferView": 10,
      "componentType": 5126,
      "count": 448,
      "max": [
        24.58160400390625,
        24.58160400390625,
        0.5749034881591797
      ],
      "min": [
        -24.58160400390625,
        -24.58160400390625,
        0
      ],
      "type": "VEC3"
    },
    {
      "bufferView": 11,
      "componentType": 5126,
      "count": 448,
      "max": [
        1,
        1,
        0
      ],
      "min": [
        -1,
        -1,
        -0.9948391318321228
      ],
      "type": "VEC3"
    },
    {
      "bufferView": 12,
      "componentType": 5126,
      "count": 448,
      "max": [
        0.9999062418937683,
        0.9993646144866943
      ],
      "min": [
        0.00009357929229736328,
        0.0000756978988647461
      ],
      "type": "VEC2"
    },
    {
      "bufferView": 13,
      "componentType": 5126,
      "count": 448,
      "max": [
        1,
        1,
        1,
        1
      ],
      "min": [
        1,
        1,
        1,
        1
      ],
      "type": "VEC4"
    },
    {
      "bufferView": 14,
      "componentType": 5123,
      "count": 1722,
      "max": [
        447
      ],
      "min": [
        0
      ],
      "type": "SCALAR"
    },
    {
      "bufferView": 15,
      "componentType": 5126,
      "count": 6097,
      "max": [
        33.85974884033203,
        42.283748626708984,
        24.803871154785156
      ],
      "min": [
        -15.754377365112305,
        -32.93791198730469,
        -24.810256958007812
      ],
      "type": "VEC3"
    },
    {
      "bufferView": 16,
      "componentType": 5126,
      "count": 6097,
      "max": [
        1,
        1,
        1
      ],
      "min": [
        -1,
        -1,
        -1
      ],
      "type": "VEC3"
    },
    {
      "bufferView": 17,
      "componentType": 5126,
      "count": 6097,
      "max": [
        0.9759654402732849,
        0.9998881816864014
      ],
      "min": [
        0.00024241874052677304,
        0.000056731514632701874
      ],
      "type": "VEC2"
    },
    {
      "bufferView": 18,
      "componentType": 5126,
      "count": 6097,
      "max": [
        1,
        1,
        1,
        1
      ],
      "min": [
        1,
        1,
        1,
        1
      ],
      "type": "VEC4"
    },
    {
      "bufferView": 19,
      "componentType": 5123,
      "count": 31872,
      "max": [
        6096
      ],
      "min": [
        0
      ],
      "type": "SCALAR"
    }
  ],
  "materials": [],
  "meshes": [
    {
      "primitives": [
        {
          "mode": 4,
          "attributes": {
            "POSITION": 0,
            "NORMAL": 1,
            "TEXCOORD_0": 2,
            "COLOR_0": 3
          },
          "indices": 4
        }
      ]
    },
    {
      "primitives": [
        {
          "mode": 4,
          "attributes": {
            "POSITION": 5,
            "NORMAL": 6,
            "TEXCOORD_0": 7,
            "COLOR_0": 8
          },
          "indices": 9
        }
      ]
    },
    {
      "primitives": [
        {
          "mode": 4,
          "attributes": {
            "POSITION": 10,
            "NORMAL": 11,
            "TEXCOORD_0": 12,
            "COLOR_0": 13
          },
          "indices": 14
        }
      ]
    },
    {
      "primitives": [
        {
          "mode": 4,
          "attributes": {
            "POSITION": 15,
            "NORMAL": 16,
            "TEXCOORD_0": 17,
            "COLOR_0": 18
          },
          "indices": 19
        }
      ]
    }
  ]
}