{"asset":{"generator":"3D Builder","version":"2.0"},"scene":0,"scenes":[{"nodes":[0]}],"nodes":[{"mesh":0,"matrix":[-8.3446360576999723E-7,-6.50988667416641E-8,0.99999803304672241,0,0.99999856948852539,-1.9009949880910426E-7,2.6011470311004814E-8,0,1.90099711971925E-7,0.99999988079071045,6.5099115431621613E-8,0,-8.9779106815512932E-8,-1.2529717931600293E-15,-8.7044014662751579E-8,1]}],"meshes":[{"primitives":[{"attributes":{"POSITION":0},"mode":4,"indices":1,"material":0}]}],"materials":[{"name":"Body_Color","pbrMetallicRoughness":{"baseColorFactor":[0.800000011920929,0.800000011920929,0.800000011920929,1],"metallicFactor":0,"roughnessFactor":0.5},"alphaMode":"OPAQUE"}],"accessors":[{"bufferView":0,"byteOffset":0,"count":8,"componentType":5126,"type":"VEC3","min":[-0.742878258228302,-0.0070190709084272385,7.1054273576010019E-15],"max":[0.742878258228302,0.0070190709084272385,0.94454759359359741]},{"bufferView":1,"byteOffset":0,"count":36,"componentType":5125,"type":"SCALAR"}],"bufferViews":[{"buffer":0,"byteOffset":0,"byteLength":96,"byteStride":12,"target":34962},{"buffer":0,"byteOffset":96,"byteLength":144,"target":34963}],"buffers":[{"byteLength":240,"uri":"carte.bin"}]}